<svg xmlns="http://www.w3.org/2000/svg" viewBox="0 0 512 512">
  <defs>
    <linearGradient id="bg" x1="0" y1="0" x2="1" y2="1">
      <stop offset="0%" stop-color="#4a0d00"/>
      <stop offset="55%" stop-color="#8f2600"/>
      <stop offset="100%" stop-color="#d78300"/>
    </linearGradient>
    <radialGradient id="glow" cx="50%" cy="42%" r="52%">
      <stop offset="0%" stop-color="#fff0a6" stop-opacity="0.95"/>
      <stop offset="60%" stop-color="#ffd24a" stop-opacity="0.42"/>
      <stop offset="100%" stop-color="#ffd24a" stop-opacity="0"/>
    </radialGradient>
  </defs>
  <rect width="512" height="512" rx="120" fill="url(#bg)"/>
  <circle cx="256" cy="214" r="144" fill="url(#glow)"/>
  <circle cx="256" cy="214" r="154" fill="none" stroke="#ffd24a" stroke-width="10" stroke-opacity="0.42"/>
  <circle cx="256" cy="214" r="128" fill="none" stroke="#ffe694" stroke-width="2" stroke-opacity="0.9"/>
  <path d="M256 112c-39 0-71 27-71 61 0 18 10 32 24 41-36 7-60 31-60 62 0 39 40 69 92 69 68 0 122-56 122-122 0-62-48-111-107-111Zm-8 36c38 0 69 31 69 68 0 44-37 79-83 79-28 0-49-15-49-34 0-17 16-30 40-31h35v-31h-15c-13 0-23-10-23-21 0-17 16-30 34-30h20Z" fill="#ffe08a"/>
  <text x="256" y="418" text-anchor="middle" font-size="72" font-weight="700" font-family="Georgia, 'Times New Roman', serif" fill="#fff2c2">BP</text>
</svg>
